<svg width="16" height="9" viewBox="0 0 16 9" fill="none" xmlns="http://www.w3.org/2000/svg">
<path d="M1.175 0.363281C1.3625 0.175781 1.5845 0.0820307 1.841 0.0820307C2.097 0.0820307 2.31875 0.175781 2.50625 0.363281L8 5.85703L13.5125 0.344531C13.6875 0.169531 13.9062 0.0820312 14.1687 0.0820312C14.4312 0.0820312 14.6562 0.175781 14.8437 0.363281C15.0312 0.550781 15.125 0.772781 15.125 1.02928C15.125 1.28528 15.0312 1.50703 14.8437 1.69453L8.525 7.99453C8.45 8.06953 8.36875 8.12278 8.28125 8.15428C8.19375 8.18528 8.1 8.20078 8 8.20078C7.9 8.20078 7.80625 8.18528 7.71875 8.15428C7.63125 8.12278 7.55 8.06953 7.475 7.99453L1.15625 1.67578C0.98125 1.50078 0.893749 1.28528 0.893749 1.02928C0.893749 0.772781 0.987499 0.550781 1.175 0.363281Z" fill="black"/>
</svg>
