<svg width="39" height="35" viewBox="0 0 39 35" fill="none" xmlns="http://www.w3.org/2000/svg">
<path d="M32.5956 0.000286933C27.8076 0.0374167 23.8753 2.09678 20.553 5.27117C17.0617 8.60741 14.3161 13.2017 12.2371 17.9051C12.302 18.2709 12.4916 18.6319 12.827 19.0147C13.256 19.5042 13.9233 19.9989 14.7553 20.4441C16.4193 21.3347 18.7295 22.0321 21.0339 22.4322C23.3382 22.8323 25.6496 22.9367 27.2838 22.7115C28.1008 22.5989 28.7422 22.3939 29.0978 22.1783C29.4532 21.9628 29.5066 21.8568 29.4979 21.64L29.5578 21.6376C29.2744 18.158 29.0588 14.4231 29.5654 10.9179C29.8 9.29525 30.2031 7.71402 30.8311 6.23614C28.2055 8.79054 25.5989 11.5517 23.6092 13.9318C26.5546 8.22831 30.7776 4.06864 35.3451 0.203567C34.3991 0.0646346 33.4807 -0.00637508 32.5956 0.000449647V0.000286933ZM10.8981 15.9724C10.5284 15.9701 10.1587 15.9736 9.78921 15.9831C7.86506 16.0298 6.11131 16.2195 4.64363 16.5671C2.68672 17.0304 1.2785 17.7767 0.58711 18.6819C-0.104527 19.5873 -0.251137 20.686 0.506445 22.3813C3.23907 28.4961 10.2515 32.9645 17.7906 34.454C25.3299 35.9433 33.2673 34.466 37.9385 29.0308C39.0687 27.7158 39.2106 26.6493 38.765 25.5193C38.3194 24.3894 37.1362 23.1731 35.3737 22.046C34.1475 21.262 32.6558 20.5237 30.9871 19.8499C31.1123 21.6853 31.2827 23.496 31.4132 25.2095V25.2273C31.4636 26.1537 30.9566 26.981 30.2203 27.4972C29.4841 28.0134 28.5348 28.3162 27.4397 28.5052C25.2495 28.8833 22.448 28.7812 19.6773 28.3274C16.9067 27.8736 14.1817 27.0708 12.1696 25.9459C11.1637 25.3834 10.3281 24.7394 9.76842 23.9578C9.20875 23.1764 8.95678 22.2066 9.22006 21.2462L9.22796 21.2158L9.23836 21.1854C9.87345 19.4625 10.5945 17.7088 11.4083 15.978C11.2383 15.9753 11.0683 15.9735 10.8983 15.9724H10.8981ZM11.4497 19.7636C11.1958 20.3922 10.9515 21.0245 10.7169 21.6602C10.5842 22.1677 10.6836 22.587 11.0418 23.0871C11.4055 23.5949 12.063 24.1371 12.9414 24.6282C14.6984 25.6105 17.299 26.3978 19.9347 26.8296C22.5704 27.2614 25.2583 27.3398 27.1696 27.01C28.1253 26.8449 28.8769 26.5696 29.3135 26.2633C29.7501 25.9573 29.8843 25.7169 29.8619 25.3062C29.8189 24.7432 29.7714 24.1666 29.7215 23.5797C29.1022 23.9072 28.3519 24.097 27.4997 24.2145C25.6093 24.475 23.1929 24.3498 20.7613 23.9276C18.3295 23.5054 15.8964 22.7856 14.0071 21.7745C13.0624 21.269 12.2506 20.6907 11.6474 20.0024C11.5789 19.9249 11.5131 19.8453 11.4498 19.7637L11.4497 19.7636Z" fill="#3C65F5"/>
</svg>
