<svg width="20" height="20" viewBox="0 0 20 20" fill="none" xmlns="http://www.w3.org/2000/svg">
<path d="M4.45 17.2747V17.35H4.55017C6.07747 18.4825 7.92917 19.1173 9.85 19.1488V19.15H10H10.15V19.1488C12.0708 19.1173 13.9225 18.4825 15.4498 17.35H15.55V17.2747C15.8725 17.0286 16.18 16.7601 16.47 16.47C18.1506 14.7895 19.1099 12.5225 19.1488 10.15H19.15V10V9.85H19.1488C19.1099 7.47754 18.1506 5.21054 16.47 3.52997C14.7895 1.8494 12.5225 0.890079 10.15 0.851228V0.85H10H9.85V0.851228C7.47754 0.890079 5.21054 1.8494 3.52997 3.52997C1.8494 5.21054 0.890079 7.47754 0.851228 9.85H0.85V10V10.15H0.851228C0.890079 12.5225 1.8494 14.7895 3.52997 16.47C3.82001 16.7601 4.12751 17.0286 4.45 17.2747ZM4.50336 15.3207C3.12333 13.895 2.35 11.9874 2.35 10C2.35 7.97109 3.15598 6.02529 4.59063 4.59063C6.02529 3.15598 7.97109 2.35 10 2.35C11.0046 2.35 11.9994 2.54787 12.9275 2.93232C13.8557 3.31677 14.699 3.88027 15.4094 4.59063C16.1197 5.301 16.6832 6.14433 17.0677 7.07247C17.4521 8.00061 17.65 8.99539 17.65 10C17.65 11.0046 17.4521 11.9994 17.0677 12.9275C16.6991 13.8173 16.166 14.6292 15.4966 15.3207C15.354 14.4186 14.9298 13.578 14.2759 12.9241C13.4956 12.1437 12.4492 11.6905 11.35 11.6526V11.65H11.2H11.05H8.95H8.8H8.65V11.6526C7.55077 11.6905 6.50445 12.1437 5.72409 12.9241C5.07019 13.578 4.64597 14.4186 4.50336 15.3207ZM14.05 16V16.15V16.45V16.49C13.6932 16.7126 13.3179 16.906 12.9275 17.0677C11.9994 17.4521 11.0046 17.65 10 17.65C8.55656 17.65 7.15518 17.2421 5.95 16.49V16.45V16.15V16C5.95 15.2441 6.25027 14.5192 6.78475 13.9847C7.31922 13.4503 8.04413 13.15 8.8 13.15H8.95H11.05H11.2C11.9559 13.15 12.6808 13.4503 13.2153 13.9847C13.7497 14.5192 14.05 15.2441 14.05 16ZM10.15 4.45357V4.45H10H9.85V4.45357C9.06916 4.49077 8.3279 4.81733 7.77261 5.37261C7.21733 5.9279 6.89077 6.66916 6.85357 7.45H6.85V7.6V7.75H6.85357C6.89077 8.53084 7.21733 9.2721 7.77261 9.82739C8.3279 10.3827 9.06916 10.7092 9.85 10.7464V10.75H10H10.15V10.7464C10.9308 10.7092 11.6721 10.3827 12.2274 9.82739C12.7827 9.2721 13.1092 8.53084 13.1464 7.75H13.15V7.6V7.45H13.1464C13.1092 6.66916 12.7827 5.9279 12.2274 5.37261C11.6721 4.81733 10.9308 4.49077 10.15 4.45357ZM8.35 7.6C8.35 7.16239 8.52384 6.74271 8.83327 6.43327C9.14271 6.12384 9.56239 5.95 10 5.95C10.4376 5.95 10.8573 6.12384 11.1667 6.43327C11.4762 6.74271 11.65 7.16239 11.65 7.6C11.65 8.03761 11.4762 8.45729 11.1667 8.76673C10.8573 9.07616 10.4376 9.25 10 9.25C9.56239 9.25 9.14271 9.07616 8.83327 8.76673C8.52384 8.45729 8.35 8.03761 8.35 7.6Z" fill="#05264E" stroke="#05264E" stroke-width="0.3"/>
</svg>
