<svg width="22" height="20" viewBox="0 0 22 20" fill="none" xmlns="http://www.w3.org/2000/svg">
<path d="M13.6104 17.128C14.454 17.3756 15.3281 17.5009 16.2065 17.5C17.6192 17.5021 19.0134 17.1764 20.2821 16.548C20.3196 15.6517 20.0671 14.7675 19.5629 14.0293C19.0587 13.2912 18.3302 12.7394 17.4879 12.4575C16.6456 12.1756 15.7354 12.1791 14.8953 12.4674C14.0551 12.7557 13.3308 13.313 12.8321 14.055M13.6104 17.128V17.125C13.6104 16.012 13.3286 14.965 12.8331 14.055M13.6104 17.128V17.234C11.7071 18.3931 9.52657 19.0038 7.30472 19C4.99942 19 2.84246 18.355 1.00099 17.234L1 17.125C0.999242 15.7094 1.46444 14.3339 2.32224 13.2153C3.18005 12.0966 4.38168 11.2984 5.73768 10.9466C7.09368 10.5948 8.52692 10.7093 9.81144 11.2721C11.096 11.8349 12.1587 12.814 12.8321 14.055M10.6435 4.375C10.6435 5.2701 10.2918 6.12854 9.66589 6.76148C9.03993 7.39441 8.19095 7.74999 7.30571 7.74999C6.42047 7.74999 5.57149 7.39441 4.94553 6.76148C4.31958 6.12854 3.96792 5.2701 3.96792 4.375C3.96792 3.47989 4.31958 2.62145 4.94553 1.98851C5.57149 1.35558 6.42047 1 7.30571 1C8.19095 1 9.03993 1.35558 9.66589 1.98851C10.2918 2.62145 10.6435 3.47989 10.6435 4.375V4.375ZM18.8026 6.62499C18.8026 7.32119 18.529 7.98887 18.0422 8.48115C17.5553 8.97343 16.895 9.24999 16.2065 9.24999C15.518 9.24999 14.8577 8.97343 14.3708 8.48115C13.8839 7.98887 13.6104 7.32119 13.6104 6.62499C13.6104 5.9288 13.8839 5.26112 14.3708 4.76884C14.8577 4.27656 15.518 4 16.2065 4C16.895 4 17.5553 4.27656 18.0422 4.76884C18.529 5.26112 18.8026 5.9288 18.8026 6.62499V6.62499Z" stroke="#05264E" stroke-width="2" stroke-linecap="round" stroke-linejoin="round"/>
</svg>
