<svg width="18" height="18" viewBox="0 0 18 18" fill="none" xmlns="http://www.w3.org/2000/svg">
<path d="M14.0257 12.8488L17.5948 16.4171L16.4157 17.5963L12.8473 14.0271C11.5196 15.0915 9.86817 15.6704 8.1665 15.668C4.0265 15.668 0.666504 12.308 0.666504 8.16797C0.666504 4.02797 4.0265 0.667969 8.1665 0.667969C12.3065 0.667969 15.6665 4.02797 15.6665 8.16797C15.6689 9.86964 15.09 11.5211 14.0257 12.8488ZM12.354 12.2305C13.4116 11.1429 14.0022 9.68499 13.9998 8.16797C13.9998 4.94464 11.389 2.33464 8.1665 2.33464C4.94317 2.33464 2.33317 4.94464 2.33317 8.16797C2.33317 11.3905 4.94317 14.0013 8.1665 14.0013C9.68353 14.0037 11.1414 13.4131 12.229 12.3555L12.354 12.2305Z" fill="#4F5E64"/>
</svg>
